<svg xmlns="http://www.w3.org/2000/svg" viewBox="0 0 227.55 311.97"><g id="Layer_2" data-name="Layer 2"><g id="Layer_1-2" data-name="Layer 1"><path d="M227.45,240.49c-.34-5.81.07-1.17,0-98q-.1-71.25-.35-142.5L130.82,0c.51,163.08.83,224.53,1,229.53,0,.53.23,5,.22,11,0,3.15-.07,5.54-.08,5.83-.27,8.52-12.31,25-16.73,30.81l-.18.3a1.25,1.25,0,0,1-.6.46,1.37,1.37,0,0,1-1.08-.13c-6.34-5.16-17.2-15.75-17.31-29.65,0-.91,0-1.84.13-2.79l.12-62.16H0l.24,62.4a55.88,55.88,0,0,0,1.34,9.21c1.42,6.15,4,12.55,9.56,20.81,5.69,8.47,14.21,21.15,30.48,30.05,14.62,8,23.29,6.26,25.41,5.76,2.48-.59,8.22-1.94,9.8-6.45a9.45,9.45,0,0,0-2.33-9.19c-2.46-2.54-5.27-2.24-12-3.74,0,0-1.86-.42-11.52-3.51-13.45-4.31-31.92-20-33.28-39.18a32.31,32.31,0,0,1,0-4.35l-.42-44.8,61.65.42.28,48a74.29,74.29,0,0,0,12.64,31.87c18.51,26.28,47.75,30.33,51.25,30.76,25,3,43.38-7.94,48.73-11.24,2.3-1.41,33.58-21.33,35.58-53.31A51,51,0,0,0,227.45,240.49Zm-17.9,6.26c-.72,18-15,33.11-28.45,40.61a57.9,57.9,0,0,1-24.27,7.17,60,60,0,0,1-26.42-4.38c-1.63-.64-3-1.25-3.91-1.69l-.07-.07-.13-.17,1-1.38c6.13-5.56,17.3-17.5,20-35.15a51.82,51.82,0,0,0,.55-9.19l-.21-224.84,61.74-.47,0,224A36.49,36.49,0,0,1,209.55,246.75Z"/></g></g></svg>